<mxfile host="app.diagrams.net" modified="2021-03-19T22:03:35.919Z" agent="5.0 (Windows NT 10.0; Win64; x64) AppleWebKit/537.36 (KHTML, like Gecko) Chrome/89.0.4389.90 Safari/537.36" etag="47oYx0wd43mI24hQsqK2" version="14.4.9" type="github">
  <diagram id="7kg9tQ1YhIIZyVEb-jK0" name="Page-1">
    <mxGraphModel dx="1635" dy="803" grid="1" gridSize="10" guides="1" tooltips="1" connect="1" arrows="1" fold="1" page="1" pageScale="1" pageWidth="850" pageHeight="1100" math="0" shadow="0">
      <root>
        <mxCell id="0" />
        <mxCell id="1" parent="0" />
        <mxCell id="r28n0X1OtShjNyMQTB9m-1" value="Actor" style="shape=umlActor;verticalLabelPosition=bottom;verticalAlign=top;html=1;outlineConnect=0;" parent="1" vertex="1">
          <mxGeometry x="23" y="110" width="30" height="60" as="geometry" />
        </mxCell>
        <mxCell id="r28n0X1OtShjNyMQTB9m-2" value="" style="rounded=0;whiteSpace=wrap;html=1;" parent="1" vertex="1">
          <mxGeometry x="153" y="35" width="156" height="245" as="geometry" />
        </mxCell>
        <mxCell id="r28n0X1OtShjNyMQTB9m-3" value="&lt;b&gt;&lt;font style=&quot;font-size: 15px&quot;&gt;Measurement Screen&lt;/font&gt;&lt;/b&gt;" style="text;html=1;align=center;verticalAlign=middle;resizable=0;points=[];autosize=1;" parent="1" vertex="1">
          <mxGeometry x="146" y="10" width="170" height="20" as="geometry" />
        </mxCell>
        <mxCell id="r28n0X1OtShjNyMQTB9m-4" value="Look at Measurement Data" style="ellipse;whiteSpace=wrap;html=1;" parent="1" vertex="1">
          <mxGeometry x="171" y="50" width="120" height="70" as="geometry" />
        </mxCell>
        <mxCell id="r28n0X1OtShjNyMQTB9m-5" value="Navigate to Next Screen" style="ellipse;whiteSpace=wrap;html=1;" parent="1" vertex="1">
          <mxGeometry x="171" y="127.5" width="120" height="60" as="geometry" />
        </mxCell>
        <mxCell id="r28n0X1OtShjNyMQTB9m-6" value="Navigate to Previous Screen" style="ellipse;whiteSpace=wrap;html=1;" parent="1" vertex="1">
          <mxGeometry x="171" y="200" width="120" height="70" as="geometry" />
        </mxCell>
        <mxCell id="r28n0X1OtShjNyMQTB9m-7" value="" style="endArrow=classic;html=1;entryX=0;entryY=0.5;entryDx=0;entryDy=0;" parent="1" target="r28n0X1OtShjNyMQTB9m-4" edge="1">
          <mxGeometry width="50" height="50" relative="1" as="geometry">
            <mxPoint x="63" y="150" as="sourcePoint" />
            <mxPoint x="163" y="100" as="targetPoint" />
          </mxGeometry>
        </mxCell>
        <mxCell id="r28n0X1OtShjNyMQTB9m-8" value="" style="endArrow=classic;html=1;entryX=0;entryY=0.5;entryDx=0;entryDy=0;" parent="1" target="r28n0X1OtShjNyMQTB9m-5" edge="1">
          <mxGeometry width="50" height="50" relative="1" as="geometry">
            <mxPoint x="63" y="150" as="sourcePoint" />
            <mxPoint x="113" y="250" as="targetPoint" />
          </mxGeometry>
        </mxCell>
        <mxCell id="r28n0X1OtShjNyMQTB9m-9" value="" style="endArrow=classic;html=1;entryX=0;entryY=0.5;entryDx=0;entryDy=0;" parent="1" target="r28n0X1OtShjNyMQTB9m-6" edge="1">
          <mxGeometry width="50" height="50" relative="1" as="geometry">
            <mxPoint x="63" y="150" as="sourcePoint" />
            <mxPoint x="63" y="270" as="targetPoint" />
          </mxGeometry>
        </mxCell>
        <mxCell id="r28n0X1OtShjNyMQTB9m-10" value="Actor" style="shape=umlActor;verticalLabelPosition=bottom;verticalAlign=top;html=1;outlineConnect=0;" parent="1" vertex="1">
          <mxGeometry x="130" y="400" width="30" height="60" as="geometry" />
        </mxCell>
        <mxCell id="r28n0X1OtShjNyMQTB9m-11" value="" style="rounded=0;whiteSpace=wrap;html=1;fillColor=none;" parent="1" vertex="1">
          <mxGeometry x="260" y="325" width="190" height="325" as="geometry" />
        </mxCell>
        <mxCell id="r28n0X1OtShjNyMQTB9m-12" value="&lt;b&gt;&lt;font style=&quot;font-size: 15px&quot;&gt;Alarm Screen&lt;/font&gt;&lt;/b&gt;" style="text;html=1;align=center;verticalAlign=middle;resizable=0;points=[];autosize=1;" parent="1" vertex="1">
          <mxGeometry x="283" y="300" width="110" height="20" as="geometry" />
        </mxCell>
        <mxCell id="r28n0X1OtShjNyMQTB9m-13" value="Look at Alarm Status" style="ellipse;whiteSpace=wrap;html=1;" parent="1" vertex="1">
          <mxGeometry x="278" y="340" width="120" height="70" as="geometry" />
        </mxCell>
        <mxCell id="r28n0X1OtShjNyMQTB9m-14" value="Navigate to Next Screen" style="ellipse;whiteSpace=wrap;html=1;" parent="1" vertex="1">
          <mxGeometry x="278" y="417.5" width="120" height="60" as="geometry" />
        </mxCell>
        <mxCell id="r28n0X1OtShjNyMQTB9m-15" value="Navigate to Previous Screen" style="ellipse;whiteSpace=wrap;html=1;" parent="1" vertex="1">
          <mxGeometry x="278" y="490" width="120" height="70" as="geometry" />
        </mxCell>
        <mxCell id="r28n0X1OtShjNyMQTB9m-16" value="" style="endArrow=classic;html=1;entryX=0;entryY=0.5;entryDx=0;entryDy=0;" parent="1" target="r28n0X1OtShjNyMQTB9m-13" edge="1">
          <mxGeometry width="50" height="50" relative="1" as="geometry">
            <mxPoint x="170" y="440" as="sourcePoint" />
            <mxPoint x="270" y="390" as="targetPoint" />
          </mxGeometry>
        </mxCell>
        <mxCell id="r28n0X1OtShjNyMQTB9m-17" value="" style="endArrow=classic;html=1;entryX=0;entryY=0.5;entryDx=0;entryDy=0;" parent="1" target="r28n0X1OtShjNyMQTB9m-14" edge="1">
          <mxGeometry width="50" height="50" relative="1" as="geometry">
            <mxPoint x="170" y="440" as="sourcePoint" />
            <mxPoint x="220" y="540" as="targetPoint" />
          </mxGeometry>
        </mxCell>
        <mxCell id="r28n0X1OtShjNyMQTB9m-18" value="" style="endArrow=classic;html=1;entryX=0;entryY=0.75;entryDx=0;entryDy=0;" parent="1" edge="1">
          <mxGeometry width="50" height="50" relative="1" as="geometry">
            <mxPoint x="170" y="440" as="sourcePoint" />
            <mxPoint x="292" y="586.75" as="targetPoint" />
          </mxGeometry>
        </mxCell>
        <mxCell id="r28n0X1OtShjNyMQTB9m-19" value="Actor" style="shape=umlActor;verticalLabelPosition=bottom;verticalAlign=top;html=1;outlineConnect=0;" parent="1" vertex="1">
          <mxGeometry x="53" y="800" width="30" height="60" as="geometry" />
        </mxCell>
        <mxCell id="r28n0X1OtShjNyMQTB9m-20" value="" style="rounded=0;whiteSpace=wrap;html=1;" parent="1" vertex="1">
          <mxGeometry x="175" y="735" width="156" height="285" as="geometry" />
        </mxCell>
        <mxCell id="r28n0X1OtShjNyMQTB9m-21" value="&lt;b&gt;&lt;font style=&quot;font-size: 15px&quot;&gt;Battery On/Off Screen&lt;/font&gt;&lt;/b&gt;" style="text;html=1;align=center;verticalAlign=middle;resizable=0;points=[];autosize=1;" parent="1" vertex="1">
          <mxGeometry x="176" y="700" width="170" height="20" as="geometry" />
        </mxCell>
        <mxCell id="r28n0X1OtShjNyMQTB9m-22" value="Look at Battery Status" style="ellipse;whiteSpace=wrap;html=1;" parent="1" vertex="1">
          <mxGeometry x="201" y="740" width="120" height="40" as="geometry" />
        </mxCell>
        <mxCell id="r28n0X1OtShjNyMQTB9m-23" value="Navigate to Next Screen" style="ellipse;whiteSpace=wrap;html=1;" parent="1" vertex="1">
          <mxGeometry x="201" y="790" width="120" height="60" as="geometry" />
        </mxCell>
        <mxCell id="r28n0X1OtShjNyMQTB9m-24" value="Navigate to Previous Screen" style="ellipse;whiteSpace=wrap;html=1;" parent="1" vertex="1">
          <mxGeometry x="201" y="860" width="120" height="70" as="geometry" />
        </mxCell>
        <mxCell id="r28n0X1OtShjNyMQTB9m-25" value="" style="endArrow=classic;html=1;entryX=0;entryY=0.5;entryDx=0;entryDy=0;" parent="1" target="r28n0X1OtShjNyMQTB9m-22" edge="1">
          <mxGeometry width="50" height="50" relative="1" as="geometry">
            <mxPoint x="93" y="840" as="sourcePoint" />
            <mxPoint x="193" y="790" as="targetPoint" />
          </mxGeometry>
        </mxCell>
        <mxCell id="r28n0X1OtShjNyMQTB9m-26" value="" style="endArrow=classic;html=1;entryX=0;entryY=0.5;entryDx=0;entryDy=0;" parent="1" target="r28n0X1OtShjNyMQTB9m-23" edge="1">
          <mxGeometry width="50" height="50" relative="1" as="geometry">
            <mxPoint x="93" y="840" as="sourcePoint" />
            <mxPoint x="143" y="940" as="targetPoint" />
          </mxGeometry>
        </mxCell>
        <mxCell id="r28n0X1OtShjNyMQTB9m-27" value="" style="endArrow=classic;html=1;entryX=0;entryY=0.5;entryDx=0;entryDy=0;" parent="1" target="r28n0X1OtShjNyMQTB9m-24" edge="1">
          <mxGeometry width="50" height="50" relative="1" as="geometry">
            <mxPoint x="93" y="840" as="sourcePoint" />
            <mxPoint x="93" y="960" as="targetPoint" />
          </mxGeometry>
        </mxCell>
        <mxCell id="r28n0X1OtShjNyMQTB9m-28" value="Toggle Battery On/Off" style="ellipse;whiteSpace=wrap;html=1;" parent="1" vertex="1">
          <mxGeometry x="201" y="940" width="120" height="60" as="geometry" />
        </mxCell>
        <mxCell id="r28n0X1OtShjNyMQTB9m-29" value="" style="endArrow=classic;html=1;entryX=0;entryY=0.5;entryDx=0;entryDy=0;" parent="1" target="r28n0X1OtShjNyMQTB9m-28" edge="1">
          <mxGeometry width="50" height="50" relative="1" as="geometry">
            <mxPoint x="93" y="840" as="sourcePoint" />
            <mxPoint x="201" y="895" as="targetPoint" />
          </mxGeometry>
        </mxCell>
        <mxCell id="r28n0X1OtShjNyMQTB9m-30" value="Actor" style="shape=umlActor;verticalLabelPosition=bottom;verticalAlign=top;html=1;outlineConnect=0;" parent="1" vertex="1">
          <mxGeometry x="423" y="50" width="30" height="60" as="geometry" />
        </mxCell>
        <mxCell id="r28n0X1OtShjNyMQTB9m-31" value="Actor" style="shape=umlActor;verticalLabelPosition=bottom;verticalAlign=top;html=1;outlineConnect=0;" parent="1" vertex="1">
          <mxGeometry x="540" y="410" width="30" height="60" as="geometry" />
        </mxCell>
        <mxCell id="r28n0X1OtShjNyMQTB9m-32" value="Actor" style="shape=umlActor;verticalLabelPosition=bottom;verticalAlign=top;html=1;outlineConnect=0;" parent="1" vertex="1">
          <mxGeometry x="423" y="810" width="30" height="60" as="geometry" />
        </mxCell>
        <mxCell id="r28n0X1OtShjNyMQTB9m-33" value="Battery" style="text;html=1;align=center;verticalAlign=middle;resizable=0;points=[];autosize=1;" parent="1" vertex="1">
          <mxGeometry x="413" y="20" width="50" height="20" as="geometry" />
        </mxCell>
        <mxCell id="r28n0X1OtShjNyMQTB9m-34" value="User" style="text;html=1;align=center;verticalAlign=middle;resizable=0;points=[];autosize=1;" parent="1" vertex="1">
          <mxGeometry x="18" y="80" width="40" height="20" as="geometry" />
        </mxCell>
        <mxCell id="r28n0X1OtShjNyMQTB9m-35" value="Contactor" style="text;html=1;align=center;verticalAlign=middle;resizable=0;points=[];autosize=1;" parent="1" vertex="1">
          <mxGeometry x="393" y="780" width="70" height="20" as="geometry" />
        </mxCell>
        <mxCell id="r28n0X1OtShjNyMQTB9m-36" value="Alarm" style="text;html=1;align=center;verticalAlign=middle;resizable=0;points=[];autosize=1;" parent="1" vertex="1">
          <mxGeometry x="530" y="380" width="50" height="20" as="geometry" />
        </mxCell>
        <mxCell id="r28n0X1OtShjNyMQTB9m-37" value="" style="endArrow=classic;html=1;entryX=1;entryY=0.5;entryDx=0;entryDy=0;" parent="1" target="r28n0X1OtShjNyMQTB9m-4" edge="1">
          <mxGeometry width="50" height="50" relative="1" as="geometry">
            <mxPoint x="413" y="80" as="sourcePoint" />
            <mxPoint x="603" y="120" as="targetPoint" />
          </mxGeometry>
        </mxCell>
        <mxCell id="r28n0X1OtShjNyMQTB9m-38" value="" style="endArrow=classic;html=1;entryX=1;entryY=0.5;entryDx=0;entryDy=0;" parent="1" target="r28n0X1OtShjNyMQTB9m-13" edge="1">
          <mxGeometry width="50" height="50" relative="1" as="geometry">
            <mxPoint x="540" y="445" as="sourcePoint" />
            <mxPoint x="408" y="390" as="targetPoint" />
          </mxGeometry>
        </mxCell>
        <mxCell id="r28n0X1OtShjNyMQTB9m-39" value="" style="endArrow=classic;html=1;entryX=1;entryY=0.5;entryDx=0;entryDy=0;" parent="1" edge="1">
          <mxGeometry width="50" height="50" relative="1" as="geometry">
            <mxPoint x="420" y="840" as="sourcePoint" />
            <mxPoint x="321" y="970" as="targetPoint" />
          </mxGeometry>
        </mxCell>
        <mxCell id="r28n0X1OtShjNyMQTB9m-40" value="" style="endArrow=classic;html=1;" parent="1" edge="1">
          <mxGeometry width="50" height="50" relative="1" as="geometry">
            <mxPoint x="420" y="840" as="sourcePoint" />
            <mxPoint x="321" y="760" as="targetPoint" />
          </mxGeometry>
        </mxCell>
        <mxCell id="r28n0X1OtShjNyMQTB9m-41" value="Actor" style="shape=umlActor;verticalLabelPosition=bottom;verticalAlign=top;html=1;outlineConnect=0;" parent="1" vertex="1">
          <mxGeometry x="433" y="185" width="30" height="60" as="geometry" />
        </mxCell>
        <mxCell id="r28n0X1OtShjNyMQTB9m-42" value="Measurement" style="text;html=1;align=center;verticalAlign=middle;resizable=0;points=[];autosize=1;" parent="1" vertex="1">
          <mxGeometry x="403" y="155" width="90" height="20" as="geometry" />
        </mxCell>
        <mxCell id="r28n0X1OtShjNyMQTB9m-43" value="" style="endArrow=classic;html=1;entryX=1;entryY=0.5;entryDx=0;entryDy=0;" parent="1" target="r28n0X1OtShjNyMQTB9m-4" edge="1">
          <mxGeometry width="50" height="50" relative="1" as="geometry">
            <mxPoint x="433" y="220" as="sourcePoint" />
            <mxPoint x="291" y="150" as="targetPoint" />
          </mxGeometry>
        </mxCell>
        <mxCell id="r28n0X1OtShjNyMQTB9m-44" value="Alarm Acknowledgement " style="ellipse;whiteSpace=wrap;html=1;" parent="1" vertex="1">
          <mxGeometry x="283" y="570" width="120" height="70" as="geometry" />
        </mxCell>
        <mxCell id="r28n0X1OtShjNyMQTB9m-45" value="" style="endArrow=classic;html=1;entryX=0;entryY=0.5;entryDx=0;entryDy=0;" parent="1" target="r28n0X1OtShjNyMQTB9m-15" edge="1">
          <mxGeometry width="50" height="50" relative="1" as="geometry">
            <mxPoint x="170" y="440" as="sourcePoint" />
            <mxPoint x="273" y="535" as="targetPoint" />
          </mxGeometry>
        </mxCell>
        <mxCell id="r28n0X1OtShjNyMQTB9m-46" value="Actor" style="shape=umlActor;verticalLabelPosition=bottom;verticalAlign=top;html=1;outlineConnect=0;" parent="1" vertex="1">
          <mxGeometry x="453" y="646.25" width="30" height="60" as="geometry" />
        </mxCell>
        <mxCell id="r28n0X1OtShjNyMQTB9m-47" value="" style="rounded=0;whiteSpace=wrap;html=1;" parent="1" vertex="1">
          <mxGeometry x="599" y="573.75" width="156" height="255" as="geometry" />
        </mxCell>
        <mxCell id="r28n0X1OtShjNyMQTB9m-48" value="&lt;b&gt;&lt;font style=&quot;font-size: 15px&quot;&gt;Accelerometer Screen&lt;/font&gt;&lt;/b&gt;" style="text;html=1;align=center;verticalAlign=middle;resizable=0;points=[];autosize=1;strokeWidth=3;" parent="1" vertex="1">
          <mxGeometry x="592" y="541.25" width="170" height="20" as="geometry" />
        </mxCell>
        <mxCell id="r28n0X1OtShjNyMQTB9m-49" value="Navigate to Next Screen" style="ellipse;whiteSpace=wrap;html=1;" parent="1" vertex="1">
          <mxGeometry x="599" y="666.25" width="120" height="60" as="geometry" />
        </mxCell>
        <mxCell id="r28n0X1OtShjNyMQTB9m-50" value="Navigate to Previous Screen" style="ellipse;whiteSpace=wrap;html=1;" parent="1" vertex="1">
          <mxGeometry x="606" y="736.25" width="120" height="70" as="geometry" />
        </mxCell>
        <mxCell id="r28n0X1OtShjNyMQTB9m-51" value="" style="endArrow=classic;html=1;" parent="1" edge="1">
          <mxGeometry width="50" height="50" relative="1" as="geometry">
            <mxPoint x="493" y="686.25" as="sourcePoint" />
            <mxPoint x="601" y="616.25" as="targetPoint" />
          </mxGeometry>
        </mxCell>
        <mxCell id="r28n0X1OtShjNyMQTB9m-52" value="" style="endArrow=classic;html=1;entryX=0;entryY=0.5;entryDx=0;entryDy=0;" parent="1" target="r28n0X1OtShjNyMQTB9m-49" edge="1">
          <mxGeometry width="50" height="50" relative="1" as="geometry">
            <mxPoint x="493" y="686.25" as="sourcePoint" />
            <mxPoint x="543" y="786.25" as="targetPoint" />
          </mxGeometry>
        </mxCell>
        <mxCell id="r28n0X1OtShjNyMQTB9m-53" value="" style="endArrow=classic;html=1;entryX=0;entryY=0.5;entryDx=0;entryDy=0;" parent="1" target="r28n0X1OtShjNyMQTB9m-50" edge="1">
          <mxGeometry width="50" height="50" relative="1" as="geometry">
            <mxPoint x="493" y="686.25" as="sourcePoint" />
            <mxPoint x="493" y="806.25" as="targetPoint" />
          </mxGeometry>
        </mxCell>
        <mxCell id="r28n0X1OtShjNyMQTB9m-54" value="Look at the Accelerometer Data" style="ellipse;whiteSpace=wrap;html=1;" parent="1" vertex="1">
          <mxGeometry x="601" y="586.25" width="122" height="70" as="geometry" />
        </mxCell>
        <mxCell id="eGMClykbPvfdxJmDICMT-1" value="User" style="text;html=1;align=center;verticalAlign=middle;resizable=0;points=[];autosize=1;" parent="1" vertex="1">
          <mxGeometry x="458" y="626.25" width="40" height="20" as="geometry" />
        </mxCell>
        <mxCell id="eGMClykbPvfdxJmDICMT-2" value="Actor" style="shape=umlActor;verticalLabelPosition=bottom;verticalAlign=top;html=1;outlineConnect=0;" parent="1" vertex="1">
          <mxGeometry x="790" y="696.25" width="30" height="60" as="geometry" />
        </mxCell>
        <mxCell id="eGMClykbPvfdxJmDICMT-3" value="Accelerometer" style="text;html=1;align=center;verticalAlign=middle;resizable=0;points=[];autosize=1;" parent="1" vertex="1">
          <mxGeometry x="760" y="661.25" width="90" height="20" as="geometry" />
        </mxCell>
        <mxCell id="eGMClykbPvfdxJmDICMT-7" value="" style="endArrow=classic;html=1;exitX=0;exitY=0.3333333333333333;exitDx=0;exitDy=0;exitPerimeter=0;entryX=1;entryY=0.5;entryDx=0;entryDy=0;" parent="1" source="eGMClykbPvfdxJmDICMT-2" target="r28n0X1OtShjNyMQTB9m-54" edge="1">
          <mxGeometry width="50" height="50" relative="1" as="geometry">
            <mxPoint x="809" y="731.25" as="sourcePoint" />
            <mxPoint x="710" y="651.25" as="targetPoint" />
          </mxGeometry>
        </mxCell>
      </root>
    </mxGraphModel>
  </diagram>
</mxfile>
